<svg id="visual" viewBox="0 0 960 540" width="960" height="540" xmlns="http://www.w3.org/2000/svg" xmlns:xlink="http://www.w3.org/1999/xlink" version="1.1"><path d="M0 402L13.3 401.5C26.7 401 53.3 400 80 399.8C106.7 399.7 133.3 400.3 160 396.7C186.7 393 213.3 385 240 385.7C266.7 386.3 293.3 395.7 320 399.8C346.7 404 373.3 403 400 405C426.7 407 453.3 412 480 410.7C506.7 409.3 533.3 401.7 560 393.8C586.7 386 613.3 378 640 376.3C666.7 374.7 693.3 379.3 720 387.3C746.7 395.3 773.3 406.7 800 403.5C826.7 400.3 853.3 382.7 880 374.5C906.7 366.3 933.3 367.7 946.7 368.3L960 369L960 541L946.7 541C933.3 541 906.7 541 880 541C853.3 541 826.7 541 800 541C773.3 541 746.7 541 720 541C693.3 541 666.7 541 640 541C613.3 541 586.7 541 560 541C533.3 541 506.7 541 480 541C453.3 541 426.7 541 400 541C373.3 541 346.7 541 320 541C293.3 541 266.7 541 240 541C213.3 541 186.7 541 160 541C133.3 541 106.7 541 80 541C53.3 541 26.7 541 13.3 541L0 541Z" fill="#97bc62"></path><path d="M0 399L13.3 397C26.7 395 53.3 391 80 389.2C106.7 387.3 133.3 387.7 160 392.5C186.7 397.3 213.3 406.7 240 411C266.7 415.3 293.3 414.7 320 413C346.7 411.3 373.3 408.7 400 404.5C426.7 400.3 453.3 394.7 480 391.3C506.7 388 533.3 387 560 389.3C586.7 391.7 613.3 397.3 640 400.3C666.7 403.3 693.3 403.7 720 399C746.7 394.3 773.3 384.7 800 388.8C826.7 393 853.3 411 880 415C906.7 419 933.3 409 946.7 404L960 399L960 541L946.7 541C933.3 541 906.7 541 880 541C853.3 541 826.7 541 800 541C773.3 541 746.7 541 720 541C693.3 541 666.7 541 640 541C613.3 541 586.7 541 560 541C533.3 541 506.7 541 480 541C453.3 541 426.7 541 400 541C373.3 541 346.7 541 320 541C293.3 541 266.7 541 240 541C213.3 541 186.7 541 160 541C133.3 541 106.7 541 80 541C53.3 541 26.7 541 13.3 541L0 541Z" fill="#8ab15c"></path><path d="M0 427L13.3 427C26.7 427 53.3 427 80 425.2C106.7 423.3 133.3 419.7 160 419.2C186.7 418.7 213.3 421.3 240 416.8C266.7 412.3 293.3 400.7 320 402.5C346.7 404.3 373.3 419.7 400 427.3C426.7 435 453.3 435 480 428.3C506.7 421.7 533.3 408.3 560 405.5C586.7 402.7 613.3 410.3 640 417.7C666.7 425 693.3 432 720 436.2C746.7 440.3 773.3 441.7 800 442.2C826.7 442.7 853.3 442.3 880 434.7C906.7 427 933.3 412 946.7 404.5L960 397L960 541L946.7 541C933.3 541 906.7 541 880 541C853.3 541 826.7 541 800 541C773.3 541 746.7 541 720 541C693.3 541 666.7 541 640 541C613.3 541 586.7 541 560 541C533.3 541 506.7 541 480 541C453.3 541 426.7 541 400 541C373.3 541 346.7 541 320 541C293.3 541 266.7 541 240 541C213.3 541 186.7 541 160 541C133.3 541 106.7 541 80 541C53.3 541 26.7 541 13.3 541L0 541Z" fill="#7da756"></path><path d="M0 443L13.3 439C26.7 435 53.3 427 80 425.7C106.7 424.3 133.3 429.7 160 427.7C186.7 425.7 213.3 416.3 240 415.8C266.7 415.3 293.3 423.7 320 431.8C346.7 440 373.3 448 400 449C426.7 450 453.3 444 480 438.2C506.7 432.3 533.3 426.7 560 423C586.7 419.3 613.3 417.7 640 420.2C666.7 422.7 693.3 429.3 720 433.5C746.7 437.7 773.3 439.3 800 441.2C826.7 443 853.3 445 880 442.5C906.7 440 933.3 433 946.7 429.5L960 426L960 541L946.7 541C933.3 541 906.7 541 880 541C853.3 541 826.7 541 800 541C773.3 541 746.7 541 720 541C693.3 541 666.7 541 640 541C613.3 541 586.7 541 560 541C533.3 541 506.7 541 480 541C453.3 541 426.7 541 400 541C373.3 541 346.7 541 320 541C293.3 541 266.7 541 240 541C213.3 541 186.7 541 160 541C133.3 541 106.7 541 80 541C53.3 541 26.7 541 13.3 541L0 541Z" fill="#719d50"></path><path d="M0 447L13.3 443.8C26.7 440.7 53.3 434.3 80 433.8C106.7 433.3 133.3 438.7 160 441C186.7 443.3 213.3 442.7 240 443.3C266.7 444 293.3 446 320 447.2C346.7 448.3 373.3 448.7 400 444.7C426.7 440.7 453.3 432.3 480 434.8C506.7 437.3 533.3 450.7 560 457.3C586.7 464 613.3 464 640 464.3C666.7 464.7 693.3 465.3 720 462.5C746.7 459.7 773.3 453.3 800 448.3C826.7 443.3 853.3 439.7 880 438.5C906.7 437.3 933.3 438.7 946.7 439.3L960 440L960 541L946.7 541C933.3 541 906.7 541 880 541C853.3 541 826.7 541 800 541C773.3 541 746.7 541 720 541C693.3 541 666.7 541 640 541C613.3 541 586.7 541 560 541C533.3 541 506.7 541 480 541C453.3 541 426.7 541 400 541C373.3 541 346.7 541 320 541C293.3 541 266.7 541 240 541C213.3 541 186.7 541 160 541C133.3 541 106.7 541 80 541C53.3 541 26.7 541 13.3 541L0 541Z" fill="#65924a"></path><path d="M0 441L13.3 444.8C26.7 448.7 53.3 456.3 80 457.8C106.7 459.3 133.3 454.7 160 452.5C186.7 450.3 213.3 450.7 240 454.5C266.7 458.3 293.3 465.7 320 470.2C346.7 474.7 373.3 476.3 400 476.2C426.7 476 453.3 474 480 474C506.7 474 533.3 476 560 472.7C586.7 469.3 613.3 460.7 640 456.3C666.7 452 693.3 452 720 453.5C746.7 455 773.3 458 800 462.3C826.7 466.7 853.3 472.3 880 472.7C906.7 473 933.3 468 946.7 465.5L960 463L960 541L946.7 541C933.3 541 906.7 541 880 541C853.3 541 826.7 541 800 541C773.3 541 746.7 541 720 541C693.3 541 666.7 541 640 541C613.3 541 586.7 541 560 541C533.3 541 506.7 541 480 541C453.3 541 426.7 541 400 541C373.3 541 346.7 541 320 541C293.3 541 266.7 541 240 541C213.3 541 186.7 541 160 541C133.3 541 106.7 541 80 541C53.3 541 26.7 541 13.3 541L0 541Z" fill="#598844"></path><path d="M0 469L13.3 470.8C26.7 472.7 53.3 476.3 80 475.7C106.7 475 133.3 470 160 471C186.7 472 213.3 479 240 482.8C266.7 486.7 293.3 487.3 320 486.7C346.7 486 373.3 484 400 483.3C426.7 482.7 453.3 483.3 480 484.5C506.7 485.7 533.3 487.3 560 487C586.7 486.7 613.3 484.3 640 480.2C666.7 476 693.3 470 720 466.7C746.7 463.3 773.3 462.7 800 463.5C826.7 464.3 853.3 466.7 880 470.3C906.7 474 933.3 479 946.7 481.5L960 484L960 541L946.7 541C933.3 541 906.7 541 880 541C853.3 541 826.7 541 800 541C773.3 541 746.7 541 720 541C693.3 541 666.7 541 640 541C613.3 541 586.7 541 560 541C533.3 541 506.7 541 480 541C453.3 541 426.7 541 400 541C373.3 541 346.7 541 320 541C293.3 541 266.7 541 240 541C213.3 541 186.7 541 160 541C133.3 541 106.7 541 80 541C53.3 541 26.7 541 13.3 541L0 541Z" fill="#4d7d3e"></path><path d="M0 501L13.3 498.8C26.7 496.7 53.3 492.3 80 488.7C106.7 485 133.3 482 160 483.3C186.7 484.7 213.3 490.3 240 491.7C266.7 493 293.3 490 320 487.5C346.7 485 373.3 483 400 481.3C426.7 479.7 453.3 478.3 480 479.7C506.7 481 533.3 485 560 486C586.7 487 613.3 485 640 484.7C666.7 484.3 693.3 485.7 720 487.3C746.7 489 773.3 491 800 489.2C826.7 487.3 853.3 481.7 880 480.5C906.7 479.3 933.3 482.7 946.7 484.3L960 486L960 541L946.7 541C933.3 541 906.7 541 880 541C853.3 541 826.7 541 800 541C773.3 541 746.7 541 720 541C693.3 541 666.7 541 640 541C613.3 541 586.7 541 560 541C533.3 541 506.7 541 480 541C453.3 541 426.7 541 400 541C373.3 541 346.7 541 320 541C293.3 541 266.7 541 240 541C213.3 541 186.7 541 160 541C133.3 541 106.7 541 80 541C53.3 541 26.7 541 13.3 541L0 541Z" fill="#427338"></path><path d="M0 508L13.3 506.2C26.7 504.3 53.3 500.7 80 501C106.7 501.3 133.3 505.7 160 506.2C186.7 506.7 213.3 503.3 240 500.7C266.7 498 293.3 496 320 495C346.7 494 373.3 494 400 497.5C426.7 501 453.3 508 480 510.3C506.7 512.7 533.3 510.3 560 509.7C586.7 509 613.3 510 640 508.3C666.7 506.7 693.3 502.3 720 501.5C746.7 500.7 773.3 503.3 800 504.8C826.7 506.3 853.3 506.7 880 504.8C906.7 503 933.3 499 946.7 497L960 495L960 541L946.7 541C933.3 541 906.7 541 880 541C853.3 541 826.7 541 800 541C773.3 541 746.7 541 720 541C693.3 541 666.7 541 640 541C613.3 541 586.7 541 560 541C533.3 541 506.7 541 480 541C453.3 541 426.7 541 400 541C373.3 541 346.7 541 320 541C293.3 541 266.7 541 240 541C213.3 541 186.7 541 160 541C133.3 541 106.7 541 80 541C53.3 541 26.7 541 13.3 541L0 541Z" fill="#376933"></path><path d="M0 520L13.3 519.7C26.7 519.3 53.3 518.7 80 517.8C106.7 517 133.3 516 160 514.7C186.7 513.3 213.3 511.7 240 511C266.7 510.3 293.3 510.7 320 513.7C346.7 516.7 373.3 522.3 400 525.2C426.7 528 453.3 528 480 527.2C506.7 526.3 533.3 524.7 560 522.5C586.7 520.3 613.3 517.7 640 517.5C666.7 517.3 693.3 519.7 720 521.5C746.7 523.3 773.3 524.7 800 522.8C826.7 521 853.3 516 880 514.7C906.7 513.3 933.3 515.7 946.7 516.8L960 518L960 541L946.7 541C933.3 541 906.7 541 880 541C853.3 541 826.7 541 800 541C773.3 541 746.7 541 720 541C693.3 541 666.7 541 640 541C613.3 541 586.7 541 560 541C533.3 541 506.7 541 480 541C453.3 541 426.7 541 400 541C373.3 541 346.7 541 320 541C293.3 541 266.7 541 240 541C213.3 541 186.7 541 160 541C133.3 541 106.7 541 80 541C53.3 541 26.7 541 13.3 541L0 541Z" fill="#2c5f2d"></path></svg>